# xmcd CD database file
#
# Track frame offsets:
#	150
#	12787
#	24325
#	43995
#	58762
#	72282
#	88125
#	100557
#	117782
#	137277
#
# Disc length: 2014 seconds
#
# Revision: 2
# Processed by: cddbd v1.5.2PL0 Copyright (c) Steve Scherf et al.
# Submitted via: CDex 1.79
#
DISCID=7907dc0a
DTITLE=Cleve Francis - Tourist In Paradise
DYEAR=1992
DGENRE=Country
TTITLE0=Love Light
TTITLE1=You Do My Heart Good
TTITLE2=Feathers
TTITLE3=How Can I Hold You
TTITLE4=Happy
TTITLE5=The Tip Of My Fingers
TTITLE6=Rock Solid
TTITLE7=You're The Reason They Write Love Songs
TTITLE8=Those Were The Days, These Are The Nights
TTITLE9=Tourist In Paradise
EXTD=YEAR: 1992
EXTT0=
EXTT1=
EXTT2=
EXTT3=
EXTT4=
EXTT5=
EXTT6=
EXTT7=
EXTT8=
EXTT9=
PLAYORDER=
